<!-- icons.svg -->
<svg xmlns="http://www.w3.org/2000/svg" style="display: none;">

  <!-- UI / Tema -->
  <symbol id="DarkMode" viewBox="0 0 24 24"  fill="none" stroke="currentColor" stroke-width="2" stroke-linecap="round" stroke-linejoin="round" class="icon icon-tabler icons-tabler-outline icon-tabler-moon">
    <path stroke="none" d="M0 0h24v24H0z" fill="none"/>
    <path d="M12 3c.132 0 .263 0 .393 0a7.5 7.5 0 0 0 7.92 12.446a9 9 0 1 1 -8.313 -12.454z" />
  </symbol>

  <symbol id="Search" viewBox="0 0 24 24"  fill="none" class="text-gray-800">
    <path stroke="currentColor" stroke-linecap="round" stroke-width="2" d="m21 21-3.5-3.5M17 10a7 7 0 1 1-14 0 7 7 0 0 1 14 0Z"/>
  </symbol>

  <!-- Acciones -->
<symbol id="Copi" viewBox="0 0 24 24" fill="none" stroke="currentColor" stroke-width="1.8" stroke-linecap="round" stroke-linejoin="round">
  <rect width="14" height="14" x="8" y="8" rx="2" ry="2"></rect>
  <path d="M4 16c-1.1 0-2-.9-2-2V4c0-1.1.9-2 2-2h10c1.1 0 2 .9 2 2"></path>
</symbol>

<symbol id="Download" viewBox="0 0 24 24" fill="none" stroke="currentColor" stroke-width="1.8" stroke-linecap="round" stroke-linejoin="round">
  <path d="M21 15v4a2 2 0 0 1-2 2H5a2 2 0 0 1-2-2v-4"></path>
  <polyline points="7 10 12 15 17 10"></polyline>
  <line x1="12" x2="12" y1="15" y2="3"></line>
</symbol>

<symbol id="WebLoad" viewBox="0 0 24 24" fill="none" stroke="currentColor" stroke-width="1.8" stroke-linecap="round" stroke-linejoin="round">
  <path d="M10 13a5 5 0 0 0 7.54.54l3-3a5 5 0 0 0-7.07-7.07l-1.72 1.71"></path>
  <path d="M14 11a5 5 0 0 0-7.54-.54l-3 3a5 5 0 0 0 7.07 7.07l1.71-1.71"></path>
</symbol>

  <!-- Redes Sociales -->
  <symbol id="X" viewBox="0 0 24 24" fill="none" stroke="currentColor" stroke-width="2" stroke-linecap="round" stroke-linejoin="round" class="icon icon-tabler icons-tabler-outline icon-tabler-brand-x">
    <path stroke="none" d="M0 0h24v24H0z" fill="none"/>
    <path d="M4 4l11.733 16h4.267l-11.733 -16z" />
    <path d="M4 20l6.768 -6.768m2.46 -2.46l6.772 -6.772" />
  </symbol>

  <symbol id="GitHub" viewBox="0 0 24 24" fill="currentColor" aria-hidden="true" xmlns="http://www.w3.org/2000/svg">
    <path fill-rule="evenodd" d="M12.006 2a9.847 9.847 0 0 0-6.484 2.44 10.32 10.32 0 0 0-3.393 6.17 10.48 10.48 0 0 0 1.317 6.955 10.045 10.045 0 0 0 5.4 4.418c.504.095.683-.223.683-.494 0-.245-.01-1.052-.014-1.908-2.78.62-3.366-1.21-3.366-1.21a2.711 2.711 0 0 0-1.11-1.5c-.907-.637.07-.621.07-.621.317.044.62.163.885.346.266.183.487.426.647.71.135.253.318.476.538.655a2.079 2.079 0 0 0 2.37.196c.045-.52.27-1.006.635-1.37-2.219-.259-4.554-1.138-4.554-5.07a4.022 4.022 0 0 1 1.031-2.75 3.77 3.77 0 0 1 .096-2.713s.839-.275 2.749 1.05a9.26 9.26 0 0 1 5.004 0c1.906-1.325 2.74-1.05 2.74-1.05.37.858.406 1.828.101 2.713a4.017 4.017 0 0 1 1.029 2.75c0 3.939-2.339 4.805-4.564 5.058a2.471 2.471 0 0 1 .679 1.897c0 1.372-.012 2.477-.012 2.814 0 .272.18.592.687.492a10.05 10.05 0 0 0 5.388-4.421 10.473 10.473 0 0 0 1.313-6.948 10.32 10.32 0 0 0-3.39-6.165A9.847 9.847 0 0 0 12.007 2Z" clip-rule="evenodd"/>
  </symbol>

  <!-- Logo -->
  <symbol id="Logo" viewBox="0 0 24 24" fill="none" stroke="currentColor" stroke-width="2" stroke-linecap="round" stroke-linejoin="round" class="icon icon-tabler icons-tabler-outline icon-tabler-confucius">
    <path stroke="none" d="M0 0h24v24H0z" fill="none"/>
    <path d="M9 19l3 2v-18" />
    <path d="M4 10l8 -2" />
    <path d="M4 18l8 -10" />
    <path d="M20 18l-8 -8l8 -4" />
  </symbol>

  <symbol id="Gitlab" viewBox="0 0 380 380" xmlns="http://www.w3.org/2000/svg">
    <g id="LOGO">
      <g>
        <path fill="#fc6d26" d="M265.3,174.4l-.2-.6-21.2-55.3c-.4-1.1-1.2-2-2.2-2.6s-2.1-.9-3.3-.9-2.3.5-3.2,1.2c-.9.7-1.6,1.7-1.9,2.9l-14.3,43.8h-57.9l-14.3-43.8c-.3-1.1-1-2.1-1.9-2.9-.9-.7-2-1.2-3.2-1.2s-2.3.2-3.3.9c-1,.6-1.8,1.5-2.2,2.6l-21.2,55.3-.2.6c-6.3,16.4-.9,34.9,13.1,45.5h.2s32.3,24.3,32.3,24.3l16,12.1,9.7,7.3c2.3,1.8,5.6,1.8,7.9,0l9.7-7.3,16-12.1,32.5-24.3c14-10.6,19.3-29.1,13-45.5Z"/>
        <path fill="#e24329" d="M265.1,173.8c-10.5,2.2-20.2,6.6-28.5,12.8-0.1,0-25.2,19.1-46.6,35.2,15.8,12,29.6,22.4,29.6,22.4l32.5-24.3c14-10.6,19.3-29.1,13-45.5Z"/>
        <path fill="#fca326" d="M160.3,244.2l16,12.1,9.7,7.3c2.3,1.8,5.6,1.8,7.9,0l9.7-7.3,16-12.1s-13.8-10.4-29.6-22.4c-15.9,12-29.7,22.4-29.7,22.4Z"/>
        <path fill="#fc6d26" d="M143.4,186.6c-8.3-6.2-18-10.7-28.5-12.8l-.2.6c-6.3,16.4-.9,34.9,13.1,45.5h.2s32.3,24.3,32.3,24.3,13.8-10.4,29.7-22.4c-21.3-16.1-46.4-35.1-46.6-35.2Z"/>
      </g>
    </g>
  </symbol>

  <symbol id="Prisma" fill="currentColor" viewBox="0 0 256 310" xmlns="http://www.w3.org/2000/svg" preserveAspectRatio="xMidYMid"><path fill="currentColor" d="M254.313 235.519L148 9.749A17.063 17.063 0 00133.473.037a16.87 16.87 0 00-15.533 8.052L2.633 194.848a17.465 17.465 0 00.193 18.747L59.2 300.896a18.13 18.13 0 0020.363 7.489l163.599-48.392a17.929 17.929 0 0011.26-9.722 17.542 17.542 0 00-.101-14.76l-.008.008zm-23.802 9.683l-138.823 41.05c-4.235 1.26-8.3-2.411-7.419-6.685l49.598-237.484c.927-4.443 7.063-5.147 9.003-1.035l91.814 194.973a6.63 6.63 0 01-4.18 9.18h.007z"/>
  </symbol>

  <symbol id="Chrome" xmlns="http://www.w3.org/2000/svg" preserveAspectRatio="xMidYMid" viewBox="0 0 190.5 190.5"><path fill="#fff" d="M95.252 142.873c26.304 0 47.627-21.324 47.627-47.628s-21.323-47.628-47.627-47.628-47.627 21.324-47.627 47.628 21.323 47.628 47.627 47.628z"/><path fill="#229342" d="m54.005 119.07-41.24-71.43a95.227 95.227 0 0 0-.003 95.25 95.234 95.234 0 0 0 82.496 47.61l41.24-71.43v-.011a47.613 47.613 0 0 1-17.428 17.443 47.62 47.62 0 0 1-47.632.007 47.62 47.62 0 0 1-17.433-17.437z"/><path fill="#fbc116" d="m136.495 119.067-41.239 71.43a95.229 95.229 0 0 0 82.489-47.622A95.24 95.24 0 0 0 190.5 95.248a95.237 95.237 0 0 0-12.772-47.623H95.249l-.01.007a47.62 47.62 0 0 1 23.819 6.372 47.618 47.618 0 0 1 17.439 17.431 47.62 47.62 0 0 1-.001 47.633z"/><path fill="#1a73e8" d="M95.252 132.961c20.824 0 37.705-16.881 37.705-37.706S116.076 57.55 95.252 57.55 57.547 74.431 57.547 95.255s16.881 37.706 37.705 37.706z"/><path fill="#e33b2e" d="M95.252 47.628h82.479A95.237 95.237 0 0 0 142.87 12.76 95.23 95.23 0 0 0 95.245 0a95.222 95.222 0 0 0-47.623 12.767 95.23 95.23 0 0 0-34.856 34.872l41.24 71.43.011.006a47.62 47.62 0 0 1-.015-47.633 47.61 47.61 0 0 1 41.252-23.815z"/>
  </symbol>

  <symbol id="Angle-Left" aria-hidden="true" xmlns="http://www.w3.org/2000/svg" fill="none" viewBox="0 0 24 24">
    <path stroke="currentColor" stroke-linecap="round" stroke-linejoin="round" stroke-width="2" d="m15 19-7-7 7-7"/>
  </symbol>

  <symbol id="Tailwind" xmlns="http://www.w3.org/2000/svg" fill="none" viewBox="0 0 54 33"><g clip-path="url(#prefix__clip0)"><path fill="#38bdf8" fill-rule="evenodd" d="M27 0c-7.2 0-11.7 3.6-13.5 10.8 2.7-3.6 5.85-4.95 9.45-4.05 2.054.513 3.522 2.004 5.147 3.653C30.744 13.09 33.808 16.2 40.5 16.2c7.2 0 11.7-3.6 13.5-10.8-2.7 3.6-5.85 4.95-9.45 4.05-2.054-.513-3.522-2.004-5.147-3.653C36.756 3.11 33.692 0 27 0zM13.5 16.2C6.3 16.2 1.8 19.8 0 27c2.7-3.6 5.85-4.95 9.45-4.05 2.054.514 3.522 2.004 5.147 3.653C17.244 29.29 20.308 32.4 27 32.4c7.2 0 11.7-3.6 13.5-10.8-2.7 3.6-5.85 4.95-9.45 4.05-2.054-.513-3.522-2.004-5.147-3.653C23.256 19.31 20.192 16.2 13.5 16.2z" clip-rule="evenodd"/></g><defs><clipPath id="prefix__clip0"><path fill="#fff" d="M0 0h54v32.4H0z"/></clipPath></defs>
  </symbol>

  <symbol id="Express" fill="currentColor" xmlns="http://www.w3.org/2000/svg" viewBox="0 0 32 32"><path fill="currentColor" d="M32 24.795c-1.164.296-1.884.013-2.53-.957l-4.594-6.356-.664-.88-5.365 7.257c-.613.873-1.256 1.253-2.4.944l6.87-9.222-6.396-8.33c1.1-.214 1.86-.105 2.535.88l4.765 6.435 4.8-6.4c.615-.873 1.276-1.205 2.38-.883l-2.48 3.288-3.36 4.375c-.4.5-.345.842.023 1.325L32 24.795zM.008 15.427l.562-2.764C2.1 7.193 8.37 4.92 12.694 8.3c2.527 1.988 3.155 4.8 3.03 7.95H1.48c-.214 5.67 3.867 9.092 9.07 7.346 1.825-.613 2.9-2.042 3.438-3.83.273-.896.725-1.036 1.567-.78-.43 2.236-1.4 4.104-3.45 5.273-3.063 1.75-7.435 1.184-9.735-1.248C1 21.6.434 19.812.18 17.9c-.04-.316-.12-.617-.18-.92q.008-.776.008-1.552zm1.498-.38h12.872c-.084-4.1-2.637-7.012-6.126-7.037-3.83-.03-6.58 2.813-6.746 7.037z"/>
  </symbol>

  <symbol id="Firebase" xmlns="http://www.w3.org/2000/svg" fill="none" viewBox="0 0 600 600"><path fill="#FF9100" d="M213.918 560.499c23.248 9.357 48.469 14.909 74.952 15.834 35.84 1.252 69.922-6.158 100.391-20.234-36.537-14.355-69.627-35.348-97.869-61.448-18.306 29.31-45.382 52.462-77.474 65.848Z"/><path fill="#FFC400" d="M291.389 494.66c-64.466-59.622-103.574-145.917-100.269-240.568.108-3.073.27-6.145.46-9.216a166.993 166.993 0 0 0-36.004-5.241 167.001 167.001 0 0 0-51.183 6.153c-17.21 30.145-27.594 64.733-28.888 101.781-3.339 95.611 54.522 179.154 138.409 212.939 32.093-13.387 59.168-36.51 77.475-65.848Z"/><path fill="#FF9100" d="M291.39 494.657c14.988-23.986 24.075-52.106 25.133-82.403 2.783-79.695-50.792-148.251-124.942-167.381-.19 3.071-.352 6.143-.46 9.216-3.305 94.651 35.803 180.946 100.269 240.568Z"/><path fill="#DD2C00" d="M308.231 20.858C266 54.691 232.652 99.302 212.475 150.693c-11.551 29.436-18.81 61.055-20.929 94.2 74.15 19.13 127.726 87.686 124.943 167.38-1.058 30.297-10.172 58.39-25.134 82.404 28.24 26.127 61.331 47.093 97.868 61.447 73.337-33.9 125.37-106.846 128.383-193.127 1.952-55.901-19.526-105.724-49.875-147.778-32.051-44.477-159.5-194.36-159.5-194.36Z"/>
  </symbol>

  <symbol id="Google" viewBox="0 0 256 262" xmlns="http://www.w3.org/2000/svg" preserveAspectRatio="xMidYMid"><path d="M255.878 133.451c0-10.734-.871-18.567-2.756-26.69H130.55v48.448h71.947c-1.45 12.04-9.283 30.172-26.69 42.356l-.244 1.622 38.755 30.023 2.685.268c24.659-22.774 38.875-56.282 38.875-96.027" fill="#4285F4"/><path d="M130.55 261.1c35.248 0 64.839-11.605 86.453-31.622l-41.196-31.913c-11.024 7.688-25.82 13.055-45.257 13.055-34.523 0-63.824-22.773-74.269-54.25l-1.531.13-40.298 31.187-.527 1.465C35.393 231.798 79.49 261.1 130.55 261.1" fill="#34A853"/><path d="M56.281 156.37c-2.756-8.123-4.351-16.827-4.351-25.82 0-8.994 1.595-17.697 4.206-25.82l-.073-1.73L15.26 71.312l-1.335.635C5.077 89.644 0 109.517 0 130.55s5.077 40.905 13.925 58.602l42.356-32.782" fill="#FBBC05"/><path d="M130.55 50.479c24.514 0 41.05 10.589 50.479 19.438l36.844-35.974C195.245 12.91 165.798 0 130.55 0 79.49 0 35.393 29.301 13.925 71.947l42.211 32.783c10.59-31.477 39.891-54.251 74.414-54.251" fill="#EB4335"/>
  </symbol>

  <symbol id="Fire" viewBox="0 0 443 556" fill="none" xmlns="http://www.w3.org/2000/svg">
    <path d="M138.55 539.641C161.798 548.998 187.019 554.55 213.502 555.475C249.342 556.727 283.424 549.317 313.893 535.241C277.356 520.886 244.266 499.893 216.024 473.793C197.718 503.103 170.642 526.255 138.55 539.641Z" fill="#9AEBA3"/>
    <path d="M216.021 473.801C151.555 414.179 112.447 327.884 115.752 233.233C115.86 230.16 116.022 227.088 116.212 224.017C104.438 220.964 92.3648 219.207 80.2084 218.776C62.9317 218.166 45.665 220.241 29.0254 224.929C11.8154 255.074 1.43135 289.662 0.137351 326.71C-3.20165 422.321 54.6594 505.864 138.546 539.649C170.639 526.262 197.714 503.139 216.021 473.801Z" fill="#DAFDBA"/>
    <path d="M216.022 473.796C231.01 449.81 240.097 421.69 241.155 391.393C243.938 311.698 190.363 243.142 116.213 224.012C116.023 227.083 115.861 230.155 115.753 233.228C112.448 327.879 151.556 414.174 216.022 473.796Z" fill="#9AEBA3"/>
    <path d="M232.863 0C190.632 33.833 157.284 78.444 137.107 129.835C125.556 159.271 118.297 190.89 116.178 224.035C190.328 243.165 243.904 311.721 241.121 391.415C240.063 421.712 230.949 449.805 215.987 473.819C244.227 499.946 277.318 520.912 313.855 535.266C387.192 501.366 439.225 428.42 442.238 342.139C444.19 286.238 422.712 236.415 392.363 194.361C360.312 149.884 232.863 0 232.863 0Z" fill="#45C4B0"/>
  </symbol>



</svg>